<svg width="40" height="40" viewBox="0 0 40 40" fill="none" xmlns="http://www.w3.org/2000/svg">
<path d="M9.30883 20.0012C10.2353 19.6144 11.0043 18.7458 11.0043 17.3097C11.0043 15.1719 9.16986 13.8748 6.95789 13.8748H0.120466C0.0885224 13.8748 0.0578866 13.8875 0.0352993 13.9101C0.012712 13.9327 2.22758e-05 13.9633 2.22758e-05 13.9953V15.9386C-0.000285677 15.9546 0.00260205 15.9705 0.00851682 15.9854C0.0144316 16.0002 0.0232556 16.0138 0.0344705 16.0252C0.0456854 16.0366 0.0590673 16.0457 0.0738331 16.0519C0.0885989 16.0581 0.104452 16.0613 0.120466 16.0613H6.48538C7.51146 16.0613 8.20632 16.689 8.20632 17.451C8.20632 18.2131 7.51146 18.8523 6.48538 18.8523H2.70303V17.414C2.70334 17.3978 2.70038 17.3817 2.69433 17.3666C2.68827 17.3516 2.67924 17.3379 2.66778 17.3265C2.65631 17.315 2.64265 17.306 2.62762 17.2999C2.61258 17.2939 2.59648 17.2909 2.58027 17.2912H0.120466C0.104452 17.2912 0.0885989 17.2944 0.0738331 17.3006C0.0590673 17.3068 0.0456854 17.3159 0.0344705 17.3273C0.0232556 17.3387 0.0144316 17.3523 0.00851682 17.3672C0.00260205 17.3821 -0.000285677 17.398 2.22758e-05 17.414V26.0001C2.22758e-05 26.0321 0.012712 26.0627 0.0352993 26.0853C0.0578866 26.1079 0.0885224 26.1206 0.120466 26.1206H6.86061C9.38063 26.1206 11.185 24.9463 11.185 22.549C11.1901 21.9785 11.01 21.4217 10.6717 20.9623C10.3334 20.5028 9.85517 20.1656 9.30883 20.0012ZM6.61741 23.992H2.70303V21.1199H6.61741C7.66896 21.1199 8.38235 21.7638 8.38235 22.5559C8.38235 23.3481 7.66896 23.992 6.61741 23.992Z" fill="#D7191F"/>
<path d="M37.5849 16.0613H38.6157C38.6482 16.0613 38.6794 16.0484 38.7025 16.0254C38.7255 16.0024 38.7384 15.9711 38.7384 15.9386V13.9953C38.7384 13.9793 38.7352 13.9634 38.729 13.9486C38.7228 13.9339 38.7137 13.9205 38.7023 13.9093C38.6909 13.8981 38.6773 13.8893 38.6625 13.8833C38.6476 13.8774 38.6317 13.8745 38.6157 13.8748H37.168C35.4934 13.8748 34.6063 14.4099 34.0991 15.5471L30.9513 23.2578C30.888 23.4703 30.753 23.6542 30.5693 23.7784C30.3856 23.9025 30.1646 23.9592 29.9438 23.9387V13.9953C29.9438 13.9793 29.9406 13.9634 29.9344 13.9486C29.9282 13.9339 29.9191 13.9205 29.9077 13.9093C29.8963 13.8981 29.8827 13.8893 29.8678 13.8833C29.853 13.8774 29.837 13.8745 29.821 13.8748H27.5048C27.4888 13.8745 27.4729 13.8774 27.458 13.8833C27.4432 13.8893 27.4296 13.8981 27.4182 13.9093C27.4067 13.9205 27.3977 13.9339 27.3915 13.9486C27.3853 13.9634 27.3821 13.9793 27.3821 13.9953V25.9121C27.3827 25.9689 27.4057 26.0231 27.446 26.063C27.4863 26.1028 27.5408 26.1252 27.5975 26.1252H30.1939C31.8662 26.1252 32.6329 25.5902 33.1378 24.4529L36.2462 16.8373C36.4963 16.2976 36.8553 16.0613 37.5849 16.0613Z" fill="#D7191F"/>
<path d="M39.9799 25.984L36.0123 20.9115C36.0107 20.9086 36.0083 20.9062 36.0054 20.9045C36.0026 20.9028 35.9994 20.9019 35.996 20.9019C35.9927 20.9019 35.9895 20.9028 35.9866 20.9045C35.9838 20.9062 35.9814 20.9086 35.9798 20.9115L34.9121 23.5242C34.908 23.5316 34.9059 23.54 34.9059 23.5485C34.9059 23.557 34.908 23.5653 34.9121 23.5728L36.6469 25.889C36.6971 25.9648 36.7662 26.0261 36.8475 26.0667C36.9288 26.1074 37.0194 26.126 37.1101 26.1206H39.9035C39.9203 26.1233 39.9376 26.1208 39.953 26.1133C39.9684 26.1059 39.9811 26.0939 39.9894 26.079C39.9978 26.0641 40.0013 26.047 39.9996 26.03C39.9979 26.013 39.991 25.9969 39.9799 25.984Z" fill="#D7191F"/>
<path d="M15.5277 17.2958H13.2115C13.1789 17.2958 13.1477 17.3088 13.1247 17.3318C13.1017 17.3548 13.0887 17.386 13.0887 17.4186V26.0048C13.0887 26.0208 13.0919 26.0366 13.0981 26.0514C13.1043 26.0661 13.1134 26.0795 13.1248 26.0907C13.1363 26.102 13.1498 26.1108 13.1647 26.1167C13.1796 26.1226 13.1955 26.1255 13.2115 26.1252H15.5277C15.5599 26.1252 15.5907 26.1126 15.6137 26.0901C15.6367 26.0675 15.6499 26.0369 15.6505 26.0048V17.414C15.6493 17.3822 15.6358 17.3522 15.6129 17.3301C15.59 17.3081 15.5595 17.2958 15.5277 17.2958Z" fill="#D7191F"/>
<path d="M25.0589 13.8748H22.7427C22.7269 13.8748 22.7112 13.878 22.6966 13.884C22.682 13.8901 22.6687 13.8989 22.6575 13.9101C22.6463 13.9213 22.6374 13.9346 22.6314 13.9492C22.6253 13.9638 22.6222 13.9795 22.6222 13.9953V23.9387C22.4015 23.9592 22.1804 23.9025 21.9967 23.7784C21.813 23.6542 21.678 23.4703 21.6147 23.2578L18.4623 15.5471C17.9574 14.4099 17.0726 13.8748 15.3957 13.8748H13.2138C13.1978 13.8745 13.1819 13.8774 13.167 13.8833C13.1521 13.8893 13.1386 13.8981 13.1272 13.9093C13.1157 13.9205 13.1066 13.9339 13.1004 13.9486C13.0943 13.9634 13.0911 13.9793 13.0911 13.9953V15.9386C13.0911 15.9711 13.104 16.0024 13.127 16.0254C13.15 16.0484 13.1813 16.0613 13.2138 16.0613H14.9765C15.7084 16.0613 16.0651 16.293 16.3152 16.8373L19.4236 24.4529C19.9308 25.5902 20.6951 26.1252 22.3698 26.1252H24.9639C25.0206 26.1252 25.0751 26.1028 25.1154 26.063C25.1557 26.0231 25.1787 25.9689 25.1793 25.9121V13.9953C25.1793 13.9633 25.1666 13.9327 25.144 13.9101C25.1214 13.8875 25.0908 13.8748 25.0589 13.8748Z" fill="#D7191F"/>
</svg>
