<svg width="40" height="40" viewBox="0 0 40 40" fill="none" xmlns="http://www.w3.org/2000/svg">
<g clip-path="url(#clip0_7_1303)">
<path fill-rule="evenodd" clip-rule="evenodd" d="M35.1596 14.2775C33.8672 12.3386 32.1502 10.7558 30.1539 9.66315C28.1575 8.57047 25.9405 8 23.6905 8C21.4404 8 19.2234 8.57047 17.227 9.66315C15.2307 10.7558 13.5137 12.3386 12.2214 14.2775L12.0872 14.4807H15.4068L15.4444 14.4386C16.5027 13.2531 17.7804 12.3084 19.1988 11.6626C20.6172 11.0167 22.1462 10.6836 23.6916 10.6836C25.237 10.6836 26.766 11.0167 28.1844 11.6626C29.6028 12.3084 30.8805 13.2531 31.9388 14.4386L31.9741 14.4807H35.2938L35.1596 14.2775Z" fill="#E60012"/>
<path d="M10.7691 27.355L10.7079 27.4219C9.68608 28.5148 8.50656 29.0947 7.29173 29.0947C4.75377 29.0947 2.91033 27.0898 2.91033 24.3265C2.91033 21.5631 4.75377 19.5508 7.29173 19.5508C8.50656 19.5508 9.68608 20.1307 10.7079 21.2261L10.7691 21.293L12.4006 19.2162L12.3582 19.1592C10.9998 17.4715 9.3706 16.6511 7.36942 16.6511C5.36825 16.6511 3.52246 17.3624 2.18991 18.6338C0.751413 20.0241 -0.0090332 21.9845 -0.0090332 24.3091C-0.0090332 26.6338 0.751413 28.5941 2.18991 29.9845C3.51304 31.2732 5.34941 31.982 7.36942 31.982C9.38944 31.982 10.9998 31.1592 12.3582 29.4714L12.4006 29.4169L10.7691 27.355Z" fill="#004187"/>
<path d="M16.9324 16.8994H14.0507V31.7173H16.9324V16.8994Z" fill="#004187"/>
<path d="M28.2308 28.492C27.6022 28.9386 26.8694 29.1957 26.1119 29.2355C25.1702 29.2355 24.7582 28.7175 24.7582 27.5651V19.7014H27.6964V16.9109H24.7488V12.2987L21.9236 13.8923V16.9109H19.4845V19.7014H21.9236V28.0657C21.9236 30.3433 23.2067 31.9022 25.1208 31.9418C26.019 31.9882 26.9099 31.7518 27.6799 31.2628L27.7082 31.2405L28.4027 28.3854L28.2308 28.492Z" fill="#004187"/>
<path d="M33.502 16.8994H30.6179V31.7173H33.502V16.8994Z" fill="#004187"/>
<path d="M39.7526 15.0572C39.7526 15.3254 39.6771 15.5876 39.5354 15.8106C39.3938 16.0336 39.1926 16.2073 38.9571 16.3099C38.7217 16.4124 38.4626 16.4391 38.2127 16.3866C37.9628 16.3341 37.7334 16.2047 37.5534 16.0149C37.3734 15.825 37.2509 15.5833 37.2015 15.3201C37.152 15.057 37.1779 14.7843 37.2757 14.5367C37.3736 14.289 37.539 14.0775 37.7511 13.9288C37.9632 13.7801 38.2124 13.701 38.4672 13.7015C38.6371 13.6982 38.8059 13.7309 38.9634 13.7979C39.121 13.8649 39.2641 13.9646 39.3841 14.0912C39.5042 14.2178 39.5987 14.3686 39.662 14.5346C39.7253 14.7006 39.7562 14.8783 39.7526 15.0572ZM39.9998 15.0572C40.0003 14.7374 39.9106 14.4246 39.7421 14.1585C39.5736 13.8924 39.3339 13.6849 39.0533 13.5623C38.7728 13.4397 38.4639 13.4075 38.1659 13.4698C37.868 13.532 37.5942 13.686 37.3794 13.9121C37.1646 14.1382 37.0183 14.4264 36.9592 14.7401C36.9 15.0537 36.9306 15.3788 37.0471 15.6742C37.1636 15.9696 37.3607 16.2219 37.6135 16.3993C37.8663 16.5766 38.1634 16.6711 38.4672 16.6706C38.6695 16.6746 38.8705 16.6356 39.0582 16.556C39.2459 16.4763 39.4164 16.3576 39.5595 16.207C39.7026 16.0564 39.8153 15.8769 39.891 15.6793C39.9667 15.4818 40.0037 15.2702 39.9998 15.0572ZM39.1664 14.6755C39.1689 14.6013 39.1562 14.5273 39.129 14.4588C39.1018 14.3902 39.0609 14.3286 39.0091 14.2783C38.9572 14.2279 38.8956 14.1899 38.8285 14.1669C38.7613 14.144 38.6903 14.1365 38.6202 14.1452H37.8857V15.9048H38.1682V15.2257H38.4907L38.818 15.9048H39.1546L38.8109 15.1935C38.9187 15.1652 39.0135 15.0976 39.0785 15.0029C39.1436 14.9081 39.1747 14.7921 39.1664 14.6755ZM38.8792 14.6755C38.8792 14.8515 38.7638 14.9233 38.6108 14.9233H38.1682V14.4277H38.6108C38.6444 14.4227 38.6786 14.4254 38.711 14.4356C38.7435 14.4458 38.7735 14.4632 38.799 14.4868C38.8245 14.5103 38.8449 14.5393 38.8587 14.5719C38.8725 14.6045 38.8795 14.6398 38.8792 14.6755Z" fill="#004187"/>
</g>
<defs>
<clipPath id="clip0_7_1303">
<rect width="40" height="24" fill="white" transform="translate(0 8)"/>
</clipPath>
</defs>
</svg>
