<svg width="40" height="40" viewBox="0 0 40 40" fill="none" xmlns="http://www.w3.org/2000/svg">
<path d="M26.144 23.3837C26.0554 22.8352 25.8985 22.3 25.677 21.7904C25.0437 20.2653 23.9401 18.9821 22.527 18.1276C21.4192 17.4624 20.1498 17.1148 18.8577 17.1229C17.5656 17.131 16.3007 17.4944 15.2013 18.1734C14.1786 18.7881 13.3477 19.6761 12.8022 20.7374C12.6221 21.0999 12.472 21.4766 12.3535 21.8637C12.0183 22.87 11.8893 23.9335 11.9742 24.9908C12.0592 26.048 12.3563 27.0773 12.848 28.0172C13.1855 28.5947 13.7035 29.0451 14.3223 29.2992C14.629 29.4259 14.9612 29.4786 15.2921 29.4532C15.6229 29.4277 15.9432 29.3248 16.2269 29.1527C16.5438 28.9076 16.7807 28.5741 16.9079 28.1943C17.035 27.8145 17.0466 27.4055 16.9412 27.0191C16.6913 26.0392 16.7166 25.0094 17.0144 24.043C17.1248 23.7275 17.303 23.4399 17.5364 23.2006C17.6844 23.0582 17.8545 22.9407 18.04 22.8526C18.4298 22.6549 18.8718 22.5844 19.3037 22.6512C19.6728 22.7313 20.0178 22.8975 20.3106 23.1362C20.6034 23.3749 20.8357 23.6793 20.9886 24.0247C21.2874 24.7223 21.4431 25.4727 21.4464 26.2316C21.4585 29.574 20.9645 32.8991 19.9813 36.0937C19.8989 36.4234 19.8073 36.7439 19.7158 37.0643C19.6242 37.3848 19.5143 37.6321 19.7158 37.8793C19.7917 37.9777 19.893 38.0537 20.0088 38.0991C20.5033 38.3006 20.9245 37.9984 21.2267 37.6687C23.0919 35.6751 24.4654 33.2731 25.2374 30.6544C25.558 29.6926 25.815 28.7106 26.0066 27.715C26.3041 26.2811 26.3536 24.8069 26.1532 23.3563" fill="#008485"/>
<path d="M39.9634 8.17431C39.9589 8.06034 39.9312 7.94849 39.8822 7.84552C39.8332 7.74255 39.7637 7.65059 39.6781 7.57525C39.5925 7.4999 39.4925 7.44273 39.3841 7.40719C39.2757 7.37165 39.1613 7.35848 39.0477 7.36848C38.5753 7.4363 38.1174 7.58172 37.6924 7.79886C29.2039 11.0221 19.6348 11.6357 10.6883 10.3445C9.15912 10.1247 7.61158 9.82257 6.10982 9.57533C5.19412 9.42882 4.196 9.20905 3.22536 9.1358C2.35185 8.96674 1.44678 9.14054 0.698021 9.62112C0.311384 10.0429 0.0713139 10.5783 0.0135635 11.1475C-0.0441869 11.7168 0.0834728 12.2895 0.377527 12.7803C1.03287 13.9003 1.98311 14.8188 3.12464 15.4358C4.17892 16.187 5.4298 16.6135 6.72335 16.6629C10.1389 16.4523 13.5545 16.1135 16.9518 15.6739C22.7482 14.923 28.8559 14.2088 34.2585 11.9653C36.067 11.2523 37.7705 10.2973 39.3224 9.12665C39.5971 8.91603 40 8.56807 40 8.21094" fill="#008485"/>
<path d="M15.6155 5.26331C15.6603 6.1183 16.0315 6.9235 16.6525 7.51285C17.2735 8.1022 18.0971 8.43075 18.9532 8.43075C19.8094 8.43075 20.6329 8.1022 21.2539 7.51285C21.875 6.9235 22.2462 6.1183 22.291 5.26331C22.2936 4.98806 22.2341 4.71575 22.117 4.46664C21.8331 3.85312 21.5034 3.55094 21.5401 2.83669C21.5401 1.85689 20.3222 1.83858 19.6446 1.83858C18.8909 1.81406 18.1418 1.9645 17.456 2.27811C16.9161 2.55269 16.4607 2.96845 16.1382 3.48119C15.8158 3.99393 15.6383 4.58449 15.6246 5.19006V5.26331" fill="#E90061"/>
</svg>
