<svg width="40" height="40" viewBox="0 0 40 40" fill="none" xmlns="http://www.w3.org/2000/svg">
<path d="M10.4615 2.44514C9.96699 2.69064 9.52626 3.03213 9.16503 3.4497C8.80379 3.86726 8.52929 4.35255 8.35751 4.87728L1.63356 25.0732C1.28172 26.1311 1.36446 27.2854 1.86359 28.2822C2.36272 29.2791 3.23736 30.0369 4.29515 30.3889L26.3347 37.7886C27.3921 38.1368 28.5443 38.0524 29.5396 37.5536C30.5349 37.0549 31.2924 36.1825 31.6464 35.127L38.3675 14.9311C38.718 13.8734 38.6351 12.7199 38.137 11.7232C37.6389 10.7265 36.7662 9.96772 35.7099 9.61307L13.6704 2.21971C13.1473 2.04274 12.5942 1.97154 12.0433 2.01024C11.4924 2.04894 10.9548 2.19677 10.4615 2.44514Z" fill="white"/>
<path d="M16.3316 4.65464C20.1874 6.08409 23.0022 10.2027 22.7285 14.6929C22.6317 16.3667 22.1172 17.9895 21.232 19.4132C20.018 18.0539 18.4993 17.0014 16.8002 16.3421L15.8153 15.9555V25.3227L16.8145 24.9349C18.5105 24.2692 20.0243 23.2106 21.2314 21.846C22.4129 23.74 22.9354 25.9714 22.7176 28.193C22.4997 30.4147 21.5538 32.5021 20.0268 34.1306L20.0366 34.1231L20.0268 34.1346L4.73472 29.0208C4.04198 28.7929 3.46757 28.3001 3.13697 27.6501C2.80636 27 2.74644 26.2456 2.97028 25.5515L9.71143 5.34183C9.93187 4.65612 10.4156 4.08602 11.0563 3.75687C11.6969 3.42771 12.4421 3.36645 13.1279 3.58656L13.1497 3.59402L16.3316 4.65464Z" fill="#0092D8"/>
<path d="M12.3865 25.8886H10.8733V15.3954H12.3865V25.8886Z" fill="white"/>
<path d="M20.3489 20.6287C19.4971 19.6132 18.4528 18.7762 17.276 18.1662V23.0993C18.452 22.4846 19.496 21.6453 20.3489 20.6287Z" fill="#E43D30"/>
<path d="M35.2237 10.9569L21.1815 6.27106C22.9471 8.19654 24.0087 10.6631 24.1935 13.2689C24.3783 15.8748 23.6753 18.4665 22.1991 20.6218C23.6393 22.7066 24.3542 25.2071 24.2337 27.7381C24.1133 30.2691 23.1642 32.6903 21.5326 34.629L26.8041 36.3894C27.1444 36.5012 27.5034 36.5449 27.8606 36.5179C28.2177 36.4909 28.5661 36.3938 28.8857 36.2321C29.2053 36.0704 29.4899 35.8473 29.7233 35.5756C29.9567 35.3039 30.1342 34.9889 30.2458 34.6485V34.641L36.987 14.4325C37.2109 13.7377 37.1512 12.9826 36.821 12.3316C36.4907 11.6807 35.9166 11.1866 35.2237 10.9569ZM31.4952 25.8578H29.6022L25.7016 20.6218L29.6665 15.3732H31.5881L27.6095 20.6218L31.4952 25.8578Z" fill="#004B9D"/>
</svg>
