<svg width="40" height="40" viewBox="0 0 40 40" fill="none" xmlns="http://www.w3.org/2000/svg">
<mask id="mask0_7_1283" style="mask-type:luminance" maskUnits="userSpaceOnUse" x="2" y="2" width="36" height="36">
<path d="M15.9373 35.258C13.9519 35.0626 11.5791 34.4378 9.50937 32.6441C7.60472 31.0054 6.42758 28.7469 5.85501 26.7545C5.27064 24.7199 5.02477 22.3469 5.99141 22.5355C6.28949 22.5894 6.8048 23.898 7.36222 24.8479C7.93985 25.8281 8.40801 26.3738 8.84586 26.7073C9.04626 26.8572 9.72493 25.3498 10.7135 24.4892C11.2877 24.0109 11.9091 23.8509 12.0203 25.2673C12.1381 26.9987 11.8266 29.0618 12.3352 29.0618C12.8 29.0618 13.871 28.7064 16.2135 28.506C17.0976 28.4319 17.6029 28.5987 16.7608 29.7793C16.3398 30.3721 15.7807 31.2058 14.4503 32.1641C16.4426 34.0302 18.8305 33.8029 18.876 34.5961C18.9029 35.0542 18.0121 35.3069 16.8434 35.3069C16.5554 35.3069 16.2506 35.29 15.9373 35.2563M22.6415 18.4901C20.8177 18.1094 20.4438 16.4539 20.4438 16.4539C20.2939 15.8694 20.2586 15.1318 20.3815 14.1903C20.6274 12.2231 21.1595 11.3036 21.7624 9.77766C22.5758 7.73135 20.6021 6.53388 20.9238 5.78441C21.37 4.76715 22.7779 6.06062 24.3558 6.15662C25.7115 6.22904 26.5266 6.16504 27.5791 6.30651C28.9802 6.49009 30.6592 6.96672 31.4052 7.84251C32.0873 8.64588 31.0398 9.62103 29.7885 9.01135C28.8691 8.56335 27.7138 8.83619 28.3908 9.7945C29.2059 10.704 29.5966 10.7292 30.4335 10.9465C32.7255 11.5528 32.7727 13.7524 31.2166 14.8842C29.4568 16.1776 27.6599 15.6404 26.9493 13.1073C26.5889 11.8408 25.6997 11.1991 24.7802 11.5596C23.8742 11.9166 24.4114 13.5806 25.1052 15.125C26.3026 18.1852 23.8809 18.5069 22.9514 18.5069C22.8048 18.5069 22.6971 18.5002 22.6432 18.4934M21.3263 35.834C21.3111 35.4298 21.9022 35.3271 21.9022 35.3271C27.2288 34.2761 25.6711 30.7831 23.7883 29.0029C22.9951 28.2568 15.5854 21.8585 15.5854 21.8585C8.51915 15.7718 9.08499 11.0257 9.08499 11.0257C9.43358 5.1781 14.543 3.72799 18.4162 4.06652C18.8692 4.10526 19.1235 4.37641 19.0377 4.76041C18.9568 5.17304 18.3556 5.19999 18.3556 5.19999C17.1229 5.27241 16.0215 5.39536 15.1846 5.96294C12.0674 8.06314 12.9802 11.632 17.1414 15.6067C17.6668 16.1035 18.2226 16.6341 18.7968 17.1713C18.7968 17.1713 19.6254 17.9073 21.2943 19.4871C24.4956 22.4345 26.2453 24.0227 26.2453 24.0227C31.8869 28.7199 29.9553 33.0163 27.8048 34.5052C26.1578 35.6454 24.339 36.1793 21.9494 36.309L21.8887 36.3123C21.6715 36.3123 21.3414 36.1793 21.3279 35.834M19.1791 2.01853C9.25339 2.46652 1.56913 10.8842 2.01877 20.8143C2.46841 30.7427 10.8852 38.4294 20.8126 37.9814C30.7367 37.5334 38.4293 29.1191 37.9814 19.189C37.5469 9.53177 29.5797 2.00168 20.006 2C19.7332 2 19.457 2.00674 19.1808 2.01853" fill="white"/>
</mask>
<g mask="url(#mask0_7_1283)">
<path d="M1.57446 1.99854H38.433V38.4279H1.57446V1.99854Z" fill="#0046FF"/>
</g>
</svg>
