<svg width="40" height="40" viewBox="0 0 40 40" fill="none" xmlns="http://www.w3.org/2000/svg">
<path d="M35.4325 39.0002H4.56744C2.59617 39.0002 0.999756 37.4023 0.999756 35.4325V4.56747C0.999756 2.5962 2.59617 0.999786 4.56744 0.999786H35.4325C37.4023 0.999786 39.0002 2.5962 39.0002 4.56747V35.4325C39.0002 37.4023 37.4023 39.0002 35.4325 39.0002Z" fill="#FFE300"/>
<path d="M21.2182 25.2258H19.2498V14.7748H21.2182V25.2258ZM26.3638 20.0004C28.0614 18.8814 29.1818 16.96 29.1818 14.775C29.1818 11.3213 26.381 8.52179 22.9273 8.52179H12.4452C12.2442 8.52179 12.0831 8.68286 12.0831 8.88383V31.1172C12.0831 31.3182 12.2442 31.4807 12.4452 31.4807H22.9273C26.381 31.4807 29.1818 28.6812 29.1818 25.2262C29.1818 23.0411 28.0615 21.1179 26.3638 20.0004Z" fill="#1C1C1C"/>
</svg>
