<svg width="40" height="40" viewBox="0 0 40 40" fill="none" xmlns="http://www.w3.org/2000/svg">
<g clip-path="url(#clip0_7_778)">
<path d="M39.3564 20.2094L39.0084 19.998C37.8274 18.8546 36.1811 18.3579 33.9888 18.4805C32.1619 18.5904 30.7113 19.2942 29.6043 19.96C29.6043 19.9431 29.6043 19.9262 29.6043 19.9093C29.6168 19.3256 29.6596 18.7429 29.7326 18.1634C29.8078 17.5742 29.8514 16.9816 29.8631 16.388C29.883 15.8379 29.7891 15.2895 29.5869 14.7753C29.5621 14.715 29.5187 14.6637 29.4626 14.6285C29.4064 14.5933 29.3404 14.5759 29.2737 14.5788C28.6821 14.5914 27.5338 14.9846 27.2489 15.2234L27.0967 15.5468C27.0967 16.1809 26.9444 17.9584 26.7987 18.174L26.7204 18.3854C26.4732 20.6048 26.4652 22.8432 26.6965 25.0643C26.7226 25.2545 27.101 25.5441 27.3946 25.6477C27.6882 25.7512 28.7191 25.5018 29.2976 25.2883L29.5151 25.2566C29.559 25.2507 29.6013 25.2363 29.6394 25.2143C29.6775 25.1923 29.7107 25.1631 29.737 25.1285C29.7634 25.0938 29.7823 25.0544 29.7928 25.0125C29.8032 24.9707 29.8049 24.9272 29.7979 24.8847L29.8087 24.333C30.2285 22.6802 31.9227 20.7124 33.9236 20.4144C35.0567 20.2411 35.9505 20.5201 36.6552 21.2598C36.7509 21.393 36.9575 22.5808 36.2202 23.9483C35.6634 24.9607 34.5543 25.8104 33.0928 26.3451C31.7096 26.8545 30.1871 27.0617 28.3081 26.9961L26.5399 25.84C25.0523 24.8234 23.2015 23.5573 21.5203 22.938C21.2267 22.8302 20.6961 22.4033 20.3807 22.1475L20.2067 22.0102C19.2389 21.2535 17.3968 20.0614 15.9157 19.104L15.1176 18.584V18.4213C15.1589 18.3769 16.0875 17.8358 16.0875 17.8358C17.3925 17.0961 17.9905 16.7325 18.1189 16.5444C18.0928 16.574 18.2928 16.4451 18.2928 16.4451L21.5182 14.6718C24.613 13.0168 28.1232 11.1399 29.9675 9.28633L30.0567 9.0031L30.0958 8.75159C30.217 8.41055 30.2268 8.04148 30.1241 7.69479C30.1079 7.63703 30.0762 7.58448 30.0322 7.54252C29.9883 7.50056 29.9337 7.47069 29.874 7.45596C28.4364 7.31857 26.5791 8.15555 24.8892 9.69425C24.5787 9.97372 24.2286 10.2086 23.8496 10.3917L23.5908 10.5312C21.7291 11.5606 17.5316 14.0905 15.3263 15.458C15.5349 12.6783 15.9089 9.91259 16.4464 7.17485L16.3855 6.84935L16.168 6.42663L15.9962 6.13284L15.9462 6.12016C15.7829 6.04134 15.605 5.99529 15.423 5.98475C15.241 5.97422 15.0588 5.99943 14.887 6.05887L14.452 6.21316L13.8692 6.42452C13.8128 6.43522 13.7604 6.4605 13.7175 6.4977C13.6747 6.53489 13.6429 6.58263 13.6256 6.63588C12.5773 9.10033 11.703 13.1584 11.5073 16.3965C9.89344 15.4125 8.22335 14.5184 6.50511 13.7185L6.47684 13.7037L6.36157 13.6805C6.0223 13.6361 5.60472 13.393 5.20237 13.1563L4.40638 12.6554L3.19498 11.8903C3.20803 11.8903 2.87528 11.8205 2.87528 11.8205C2.35113 11.9072 1.35287 12.5645 1.05057 13.0084C1.01283 13.0657 0.993875 13.1327 0.996197 13.2007C1.00132 13.2957 1.01961 13.3895 1.05057 13.4797L1.10494 13.7206L1.16149 13.8665C1.74435 14.4477 3.21673 15.4179 4.66301 16.1745L6.33765 17.0369L8.89746 18.4044C8.89746 18.4149 9.33243 18.7404 9.33243 18.7404L9.63474 18.9095L9.68693 18.9412L5.03273 21.9679L2.59037 23.5467C2.13285 23.7919 1.66162 24.012 1.17889 24.2062C0.71286 24.3603 0.320763 24.6745 0.0762323 25.0897L0.0109863 25.2271L0.0784072 25.3179L0.26327 25.4553L0.517728 25.616L0.785236 25.7956L1.04187 25.8337C1.47684 25.8506 2.1119 25.6117 3.3059 25.1045C4.39333 24.631 7.37941 22.8873 8.6517 22.1454L9.19541 21.8284C9.4129 21.8453 9.66736 21.6614 9.88702 21.4987C10.2466 21.238 10.632 21.0128 11.0375 20.8265C11.0375 20.8265 11.242 20.7188 11.4203 20.6152C11.4203 20.6723 11.4203 20.7589 11.4203 20.7589C11.4768 24.5422 11.703 27.292 12.1271 29.412V29.4521L12.1684 29.5367C12.3859 29.8368 12.6165 30.733 12.8209 31.5235L13.3059 33.1023C13.3059 33.1213 13.4451 33.2524 13.4451 33.2524C13.7213 33.432 14.563 33.747 15.1284 33.6751L15.2676 33.6582L15.3568 33.4658C15.4031 33.2276 15.4249 32.9854 15.422 32.743C15.422 32.4534 15.4003 32.1343 15.372 31.7454L15.335 31.1747C15.1567 28.5433 14.9871 24.7261 14.9871 22.1898C14.9871 22.1201 14.9871 22.0567 14.9871 21.9785C15.446 22.2617 17.4686 23.4981 17.4686 23.4981C20.907 25.6646 26.1006 28.9406 29.2389 29.8072C29.3171 29.8311 29.4005 29.8343 29.4804 29.8165C29.5603 29.7986 29.6338 29.7604 29.6935 29.7058L30.1785 29.4035L30.2654 29.3676C30.4481 29.2852 30.5699 28.9893 30.5895 28.668C33.2363 28.5412 36.927 27.5499 38.8996 25.1383C39.608 24.2649 39.9981 23.1877 40.0088 22.0757C40.0088 21.2746 39.7783 20.5793 39.3564 20.1988" fill="#F8B500"/>
</g>
<defs>
<clipPath id="clip0_7_778">
<rect width="40" height="27.6923" fill="white" transform="translate(0 6)"/>
</clipPath>
</defs>
</svg>
