<svg width="40" height="40" viewBox="0 0 40 40" fill="none" xmlns="http://www.w3.org/2000/svg">
<g clip-path="url(#clip0_7_1090)">
<path d="M40 0H0V40H40V0Z" fill="#140064"/>
<path d="M11.1025 16.5H9.29585L6.44255 19.8211V16.5H5V23.7454H6.44255V20.4159L9.39005 23.7454H11.1966L7.98985 20.1227L11.1025 16.5Z" fill="white"/>
<path d="M35 23.7454L32.8336 21.2393L34.9355 18.7331H33.3797L31.5477 20.9017V16.5H30.1062V23.7454H31.5477V21.5716L33.4146 23.7454H35Z" fill="white"/>
<path d="M14.6521 18.5585C14.0457 18.5585 13.5282 18.8199 13.1027 19.1787V16.5H11.6602V21.2721C11.6602 22.7094 12.6127 23.9116 14.3992 23.9116C16.0068 23.9116 17.1382 22.8014 17.1382 21.2456C17.1382 19.7724 16.1645 18.5585 14.6521 18.5585ZM14.3992 22.6077C14.0424 22.6065 13.7001 22.4668 13.4444 22.218C13.1887 21.9692 13.0396 21.6308 13.0286 21.2742C13.0286 21.2615 13.0286 21.2488 13.0286 21.2361C13.0286 20.964 13.1093 20.698 13.2605 20.4718C13.4117 20.2455 13.6266 20.0692 13.878 19.965C14.1294 19.8609 14.406 19.8336 14.6729 19.8867C14.9398 19.9398 15.1849 20.0709 15.3774 20.2633C15.5698 20.4557 15.7008 20.7008 15.7539 20.9677C15.807 21.2346 15.7797 21.5112 15.6756 21.7626C15.5715 22.014 15.3951 22.229 15.1689 22.3801C14.9426 22.5313 14.6766 22.612 14.4045 22.612L14.3992 22.6077Z" fill="white"/>
<path d="M27.3333 18.5585C26.7182 18.551 26.1233 18.7781 25.6696 19.1935V18.7162H24.2281V23.7444H25.6696V20.926C25.6696 20.6439 25.7816 20.3734 25.9811 20.1739C26.1806 19.9744 26.4511 19.8624 26.7332 19.8624C27.0153 19.8624 27.2859 19.9744 27.4853 20.1739C27.6848 20.3734 27.7969 20.6439 27.7969 20.926V23.7444H29.2479V20.5239C29.2479 20.5037 29.2479 20.4847 29.2479 20.4656C29.244 19.9598 29.0408 19.4758 28.6824 19.1188C28.3239 18.7617 27.8392 18.5604 27.3333 18.5585Z" fill="white"/>
<path d="M20.5895 18.5585C18.9638 18.5585 17.8208 19.6687 17.8208 21.2255C17.8208 22.6977 18.8051 23.9138 20.3344 23.9138C20.6675 23.9079 20.995 23.8272 21.2926 23.6777C21.5903 23.5283 21.8506 23.3138 22.0542 23.0501V23.7444H23.3591V21.2287H23.3475L23.3591 21.2001C23.3591 19.764 22.3982 18.5585 20.5895 18.5585ZM20.6201 22.5961C20.348 22.5961 20.082 22.5154 19.8557 22.3642C19.6295 22.2131 19.4532 21.9982 19.349 21.7468C19.2449 21.4954 19.2177 21.2187 19.2707 20.9518C19.3238 20.6849 19.4548 20.4398 19.6472 20.2474C19.8397 20.055 20.0848 19.9239 20.3517 19.8708C20.6186 19.8177 20.8953 19.845 21.1467 19.9491C21.3981 20.0533 21.6129 20.2296 21.7641 20.4559C21.9153 20.6821 21.996 20.9481 21.996 21.2203C21.9963 21.4009 21.9609 21.5799 21.8921 21.7469C21.8232 21.914 21.7221 22.0658 21.5945 22.1937C21.4669 22.3217 21.3154 22.4233 21.1486 22.4927C20.9818 22.5621 20.8029 22.5979 20.6222 22.5982L20.6201 22.5961Z" fill="white"/>
</g>
<defs>
<clipPath id="clip0_7_1090">
<rect width="40" height="40" fill="white"/>
</clipPath>
</defs>
</svg>
