<svg width="40" height="40" viewBox="0 0 40 40" fill="none" xmlns="http://www.w3.org/2000/svg">
<path d="M37 3H3V37H37V3Z" fill="#0091D0"/>
<path d="M3 3L11.4982 11.5054L19.9964 3H3Z" fill="#0091D0"/>
<path d="M3 3V19.9964L11.4982 11.5054L3 3Z" fill="#009CD8"/>
<path d="M19.9964 19.9964L11.5054 11.4982L3 19.9964H19.9964Z" fill="#0091D0"/>
<path d="M19.9964 19.9964V3L11.5054 11.4982L19.9964 19.9964Z" fill="#0082C9"/>
<path d="M19.9963 3V19.9964L28.4945 11.5054L19.9963 3Z" fill="#0070BB"/>
<path d="M36.9999 19.9964L28.5017 11.4982L20.0035 19.9964H36.9999Z" fill="#004C98"/>
<path d="M3 20.0036L11.4982 28.5018L19.9964 20.0036H3Z" fill="#0082C9"/>
<path d="M3 20.0036V37L11.4982 28.5018L3 20.0036Z" fill="#0070BB"/>
<path d="M19.9964 37L11.5054 28.4946L3 37H19.9964Z" fill="#0060AF"/>
<path d="M19.9964 37V20.0036L11.5054 28.4946L19.9964 37Z" fill="#00529C"/>
<path d="M19.9963 20.0036L28.4945 28.5018L36.9999 20.0036H19.9963Z" fill="#1C378A"/>
<path d="M19.9963 20.0036V37L28.4945 28.5018L19.9963 20.0036Z" fill="#004C98"/>
<path d="M36.9999 37L28.5017 28.4946L20.0035 37H36.9999Z" fill="#1C378A"/>
<path d="M37 37V20.0036L28.5018 28.4946L37 37Z" fill="#1C378A"/>
<path d="M19.9963 3L28.4945 11.5054L36.9999 3H19.9963Z" fill="#0060AF"/>
<path d="M37 19.9964V3L28.5018 11.4982L37 19.9964Z" fill="#00529C"/>
<path d="M36.9999 24.2527L26.1148 13.8852L9.5929 30.443L15.6178 36.4752L26.1148 26.1364L36.9999 36.9641V24.2527Z" fill="white"/>
</svg>
