<svg width="40" height="40" viewBox="0 0 40 40" fill="none" xmlns="http://www.w3.org/2000/svg">
<g clip-path="url(#clip0_7_535)">
<path d="M27.4056 2L20.227 5.56639L13.0586 2L20.227 15.4981L27.4056 2Z" fill="#FDB913"/>
<path d="M29.9151 12.4286L29.8036 12.3383L34.9239 10.2115V3.1138L26.0572 6.8407C26.0572 6.8407 21.2359 15.8695 21.1295 16.0752C23.0248 16.2965 24.7631 17.2261 25.9886 18.6736C27.2142 20.1212 27.8343 21.9774 27.7223 23.8625C27.6103 25.7475 26.7745 27.519 25.3859 28.8145C23.9973 30.1099 22.1609 30.8315 20.2524 30.8315C18.3439 30.8315 16.5075 30.1099 15.119 28.8145C13.7304 27.519 12.8946 25.7475 12.7826 23.8625C12.6705 21.9774 13.2907 20.1212 14.5163 18.6736C15.7418 17.2261 17.48 16.2965 19.3754 16.0752L14.4578 6.8407L5.54544 3.1138V10.2366L10.6607 12.3633L10.5492 12.4536C8.29026 14.404 6.68674 16.9899 5.9529 19.866C5.21905 22.7421 5.38983 25.7713 6.44242 28.5488C7.49501 31.3263 9.37926 33.7198 11.8434 35.4094C14.3075 37.099 17.2341 38.0043 20.2322 38.0043C23.2302 38.0043 26.1568 37.099 28.6209 35.4094C31.085 33.7198 32.9693 31.3263 34.0219 28.5488C35.0745 25.7713 35.2453 22.7421 34.5114 19.866C33.7776 16.9899 32.1741 14.404 29.9151 12.4536V12.4286Z" fill="#FDB913"/>
</g>
<defs>
<clipPath id="clip0_7_535">
<rect width="29.4545" height="36" fill="white" transform="translate(5.5 2)"/>
</clipPath>
</defs>
</svg>
