<svg width="40" height="40" viewBox="0 0 40 40" fill="none" xmlns="http://www.w3.org/2000/svg">
<g clip-path="url(#clip0_7_1101)">
<path d="M0.0561636 19.4354C0.040693 19.4402 0.027101 19.4497 0.0172104 19.4624C0.00731982 19.4752 0.00160154 19.4906 0.000823815 19.5066C4.60869e-05 19.5227 0.00424683 19.5386 0.0128597 19.5522C0.0214727 19.5658 0.0340872 19.5765 0.0490143 19.5828L6.22022 23.6137L7.98794 15.3863L0.0561636 19.4354Z" fill="#E72410"/>
<path d="M36.5963 15.3853H35.0359C34.9394 15.3891 34.8447 15.4118 34.7571 15.452L26.9356 19.4384C26.92 19.4429 26.9062 19.4521 26.8961 19.4647C26.886 19.4773 26.88 19.4927 26.8791 19.5088C26.8783 19.5249 26.8824 19.5408 26.8911 19.5544C26.8997 19.568 26.9124 19.5787 26.9274 19.5849L33.0016 23.5329C33.0836 23.5818 33.1767 23.6095 33.2723 23.6137H34.8317C34.9123 23.6137 34.9236 23.5774 34.8572 23.5339L28.6635 19.5031L36.6127 15.453C36.6841 15.4156 36.678 15.3853 36.5963 15.3853Z" fill="#F08300"/>
<path d="M33.2538 15.3853H22.381L20.6143 23.6158H31.4851C31.5658 23.6158 31.577 23.5794 31.5096 23.535L25.3261 19.5051L33.2702 15.453C33.3417 15.4156 33.3345 15.3853 33.2538 15.3853Z" fill="#E72410"/>
<path d="M39.9337 15.3853H38.3743C38.2778 15.389 38.183 15.4116 38.0955 15.452L30.274 19.4384C30.2584 19.4429 30.2446 19.4521 30.2344 19.4647C30.2243 19.4773 30.2184 19.4927 30.2175 19.5088C30.2166 19.5249 30.2208 19.5408 30.2294 19.5544C30.2381 19.568 30.2508 19.5787 30.2658 19.5849L36.3339 23.5329C36.4159 23.5816 36.5089 23.6094 36.6045 23.6137H38.1649C38.2456 23.6137 38.2568 23.5774 38.1894 23.5339L31.9958 19.5031L39.9459 15.453C40.0225 15.4156 40.0154 15.3853 39.9337 15.3853Z" fill="#FABE00"/>
<path d="M32.7718 9.99902H7.17811C5.74841 9.99902 4.74966 10.8888 4.51376 11.9877C4.45121 12.2667 4.47195 12.5576 4.57348 12.8251C4.675 13.0927 4.85294 13.3252 5.08564 13.4946L14.2817 19.499H14.2888L32.7882 10.0667C32.8607 10.0303 32.8535 9.99902 32.7718 9.99902Z" fill="#E72410"/>
<path d="M28.7126 28.9202L14.2899 19.5H14.2838L2.50406 25.5064C1.87704 25.872 1.41545 26.4094 1.28575 27.0133C1.04781 28.1092 1.66463 29 3.09433 29H28.688C28.7697 29 28.78 28.9646 28.7126 28.9202Z" fill="#E72410"/>
</g>
<defs>
<clipPath id="clip0_7_1101">
<rect width="40" height="19" fill="white" transform="translate(0 10)"/>
</clipPath>
</defs>
</svg>
