<svg width="40" height="40" viewBox="0 0 40 40" fill="none" xmlns="http://www.w3.org/2000/svg">
<path d="M13.346 30.0543C10.3395 30.0543 7.90259 27.6174 7.90259 24.611C7.90259 23.1853 8.45021 21.8875 9.34831 20.9164C8.41005 19.195 7.87703 17.2217 7.87703 15.1243C7.87703 14.7994 7.88981 14.4781 7.91536 14.1605C3.39566 15.8052 0.168335 20.1406 0.168335 25.228C0.168335 31.7282 5.44011 37 11.9404 37C14.0232 37 15.9782 36.4579 17.6758 35.5105V27.9113C16.681 29.2147 15.1111 30.0562 13.346 30.0562V30.0543Z" fill="url(#paint0_linear_7_1012)"/>
<path d="M13.3469 19.1676C13.962 19.1676 14.5516 19.2699 15.1029 19.4579C14.4914 18.5306 14.1336 17.4207 14.1336 16.2269C14.1336 12.985 16.7604 10.3582 20.0023 10.3582C22.368 10.3582 24.4052 11.7565 25.3343 13.7717C26.2105 13.5636 27.1232 13.4523 28.0633 13.4523C29.478 13.4523 30.8343 13.7024 32.0901 14.1587C31.5991 7.91582 26.3748 3 20.0005 3C13.3067 3 7.87793 8.42876 7.87793 15.1244C7.87793 17.2217 8.41095 19.195 9.34921 20.9164C10.3441 19.8412 11.766 19.1676 13.3469 19.1676Z" fill="url(#paint1_linear_7_1012)"/>
<path d="M28.0596 13.4537C27.1196 13.4537 26.2069 13.5651 25.3307 13.7732C25.6757 14.5198 25.8673 15.3522 25.8673 16.2284C25.8673 17.4222 25.5114 18.532 24.898 19.4575C25.4493 19.2695 26.0389 19.1691 26.6541 19.1691C29.6605 19.1691 32.0975 21.606 32.0975 24.6125C32.0975 27.6189 29.6605 30.0558 26.6541 30.0558C24.8889 30.0558 23.3191 29.2161 22.3242 27.9128V35.5101C24.0218 36.4593 25.9769 36.9997 28.0596 36.9997C34.5599 36.9997 39.8317 31.7279 39.8317 25.2276C39.8317 18.7273 34.5599 13.4537 28.0596 13.4537Z" fill="url(#paint2_linear_7_1012)"/>
<defs>
<linearGradient id="paint0_linear_7_1012" x1="10.6918" y1="37.1241" x2="6.63941" y2="14.1404" gradientUnits="userSpaceOnUse">
<stop offset="0.15" stop-color="#54C3F1"/>
<stop offset="0.3" stop-color="#4EBDED"/>
<stop offset="0.5" stop-color="#3FACE2"/>
<stop offset="0.73" stop-color="#2691D1"/>
<stop offset="0.97" stop-color="#036CB9"/>
<stop offset="1" stop-color="#0068B7"/>
</linearGradient>
<linearGradient id="paint1_linear_7_1012" x1="7.08388" y1="15.0915" x2="29.8777" y2="6.79502" gradientUnits="userSpaceOnUse">
<stop offset="0.15" stop-color="#54C3F1"/>
<stop offset="0.3" stop-color="#4EBDED"/>
<stop offset="0.5" stop-color="#3FACE2"/>
<stop offset="0.73" stop-color="#2691D1"/>
<stop offset="0.97" stop-color="#036CB9"/>
<stop offset="1" stop-color="#0068B7"/>
</linearGradient>
<linearGradient id="paint2_linear_7_1012" x1="33.2967" y1="14.5088" x2="29.2589" y2="37.4159" gradientUnits="userSpaceOnUse">
<stop offset="0.15" stop-color="#54C3F1"/>
<stop offset="0.3" stop-color="#4EBDED"/>
<stop offset="0.5" stop-color="#3FACE2"/>
<stop offset="0.73" stop-color="#2691D1"/>
<stop offset="0.97" stop-color="#036CB9"/>
<stop offset="1" stop-color="#0068B7"/>
</linearGradient>
</defs>
</svg>
