<svg width="40" height="40" viewBox="0 0 40 40" fill="none" xmlns="http://www.w3.org/2000/svg">
<g clip-path="url(#clip0_7_1323)">
<path d="M8.74429 26.7335C8.45478 28.3038 9.26842 28.8091 10.6816 28.8091C11.6833 28.8091 12.807 28.4339 13.0334 27.4435C13.3078 26.2674 11.531 26.0425 9.81313 25.4979C8.09529 24.9532 6.39941 24.097 6.96196 21.6474C7.63153 18.7317 10.6995 17.5896 13.0951 17.5896C15.6348 17.5896 17.8974 18.8808 17.2223 21.8926H13.8978C14.2298 20.6732 13.2282 20.283 12.2101 20.283C11.4939 20.283 10.5403 20.5432 10.34 21.4238C10.1026 22.4522 11.9014 22.6432 13.633 23.1851C15.3645 23.7271 17.0028 24.6226 16.4512 27.0343C15.6732 30.4214 12.6712 31.5053 9.86527 31.5053C6.93178 31.5053 4.65139 30.1599 5.41426 26.7389L8.74429 26.7335Z" fill="#005EA1"/>
<path d="M31.7538 17.8702H35.0784L32.0145 31.2196H28.6873L31.7538 17.8702Z" fill="#005EA1"/>
<path d="M19.6343 17.8713H25.6042C27.8118 17.8347 30.0881 18.4309 29.446 21.2178C29.1715 22.4141 28.2687 23.3856 27.1477 23.9099C28.4128 24.3163 28.9698 25.556 28.6227 27.0694C27.8955 30.2492 25.4381 31.2247 22.7022 31.2247H16.5704L19.6343 17.8713ZM21.7528 23.1254H24.3268C24.8989 23.1254 25.7578 22.8057 25.9732 21.8532C26.1887 20.9008 25.6096 20.562 24.9126 20.562H22.34L21.7528 23.1254ZM20.533 28.4337H23.1989C24.2527 28.4337 25.0745 28.0395 25.3297 26.9434C25.6042 25.7647 24.903 25.3718 23.9014 25.3718H21.2369L20.533 28.4337Z" fill="#005EA1"/>
<path d="M39.7228 12.5092C37.8843 7.68863 27.366 7.13856 16.233 11.279C8.2928 14.2326 2.18571 18.7754 0 22.8887C3.01856 19.7726 7.90039 16.7106 13.7879 14.5184C24.9223 10.3767 35.4392 10.9281 37.2778 15.75C37.8074 17.132 37.5618 18.7158 36.6823 20.3714C39.3743 17.5967 40.5886 14.7799 39.7228 12.5133" fill="#EC303C"/>
</g>
<defs>
<clipPath id="clip0_7_1323">
<rect width="40" height="23" fill="white" transform="translate(0 8.5)"/>
</clipPath>
</defs>
</svg>
