<svg width="40" height="40" viewBox="0 0 40 40" fill="none" xmlns="http://www.w3.org/2000/svg">
<path d="M28.1956 8.26935C26.7426 8.26935 21.8949 11.832 21.8949 11.832C21.8949 11.832 26.7426 15.3959 28.1956 15.3959C30.2207 15.3959 31.9089 14.0263 31.9089 11.832C31.9089 9.63775 30.2207 8.26935 28.1956 8.26935Z" fill="#38D200"/>
<path d="M11.7126 40C13.1656 40 18.0133 36.4373 18.0133 36.4373C18.0133 36.4373 13.1699 32.8734 11.7126 32.8734C9.68751 32.8734 8 34.2431 8 36.4373C8 38.6316 9.6906 40 11.7126 40Z" fill="#0473EA"/>
<path d="M29.4611 20.2485L16.9128 11.9066L24.1641 6.82861C25.8386 5.65587 26.3589 3.34064 25.2134 1.64387C24.6646 0.826258 23.8135 0.260103 22.8473 0.0699251C21.8812 -0.120252 20.879 0.0811213 20.0613 0.629757L20.0033 0.66926L11.3398 6.79281C10.5221 7.37052 9.85747 8.13886 9.40355 9.03129C8.94963 9.92372 8.72008 10.9133 8.7348 11.9145C8.74951 12.9156 9.00803 13.8981 9.48798 14.7768C9.96793 15.6555 10.6548 16.404 11.4892 16.9574L31.1011 29.9557C33.3312 26.5214 32.8991 22.4791 29.4611 20.2485Z" fill="#0473EA"/>
<path d="M9.41183 19.1209L31.039 33.0253C31.8653 33.5576 32.4465 34.3962 32.6549 35.3568C32.8632 36.3175 32.6816 37.3215 32.15 38.1483C31.6177 38.9747 30.7791 39.5559 29.8185 39.7642C28.8578 39.9725 27.8538 39.7909 27.027 39.2593L11.6394 29.3688C9.98568 28.3052 8.82203 26.6283 8.4043 24.707C7.98658 22.7856 8.34898 20.777 9.41183 19.1228V19.1209Z" fill="#38D200"/>
</svg>
