<svg width="40" height="40" viewBox="0 0 40 40" fill="none" xmlns="http://www.w3.org/2000/svg">
<g clip-path="url(#clip0_7_1098)">
<path d="M36.1881 22.5947C34.4202 26.9684 31.4567 28.2056 31.4567 28.2056C40.1741 19.4111 34.8504 9.27791 34.8504 9.27791C33.5636 7.00674 35.2021 6.01809 35.2021 6.01809C31.4586 6.94869 32.6287 10.0362 32.6287 10.0362C34.5095 14.4969 34.1305 18.1195 33.4925 20.3617L32.2587 19.6741L32.2769 19.6451C32.2769 19.6451 35.2003 8.17861 23.277 4.15689L23.2679 2H20.7509V16.2093L32.4537 22.8487C32.2404 23.2805 32.0144 23.685 31.7793 24.0696L20.0256 17.2923L8.22076 24.0677C7.98565 23.685 7.75965 23.2786 7.54641 22.8469L19.2473 16.2075V2H16.7322L16.7212 4.15689C4.79797 8.17861 7.72138 19.6451 7.72138 19.6451L7.7396 19.6741L6.50572 20.3617C5.866 18.1195 5.4869 14.4969 7.36962 10.0362C7.36962 10.0362 8.53971 6.94869 4.79433 6.01809C4.79433 6.01809 6.43282 7.00674 5.14608 9.27791C5.14608 9.27791 -0.177653 19.4111 8.53971 28.2056C8.53971 28.2056 5.57621 26.9684 3.80831 22.5947C3.80831 22.5947 2.8059 20.4614 -0.00268555 20.9258C-0.00268555 20.9258 1.05623 21.4029 1.67955 23.3367C1.67955 23.3367 4.2111 31.3493 13.9819 32.5719V36.9982H18.7807V30.4749C18.7807 30.4749 13.6903 30.435 9.80458 26.1793L11.0093 25.4791C11.2353 25.6913 14.9297 29.0944 19.9691 29.1833C19.9782 29.1833 19.9873 29.1833 19.9982 29.1833C20.0073 29.1833 20.0183 29.1833 20.0274 29.1833C25.0668 29.0926 28.7612 25.6895 28.9872 25.4772L30.1937 26.1775C26.308 30.4332 21.2175 30.4731 21.2175 30.4731V36.9964H26.0164V32.5701C35.7872 31.3475 38.3169 23.3349 38.3169 23.3349C38.9384 21.4011 39.9991 20.924 39.9991 20.924C37.1906 20.4578 36.1881 22.5929 36.1881 22.5929V22.5947ZM29.9367 18.3644L29.9276 18.3753L23.3244 14.6946L23.288 6.83259H23.3244C23.3244 6.83259 31.2818 8.98766 29.9367 18.3626V18.3644ZM16.6739 6.83259H16.7103L16.6739 14.6946L10.0707 18.3753L10.0616 18.3644C8.7165 8.98766 16.6739 6.8344 16.6739 6.8344V6.83259ZM20.0183 20.2619L26.6014 24.0931V24.104L26.5431 24.0714C24.1883 25.9217 21.9429 26.533 20 26.5348C18.0572 26.5348 15.8118 25.9217 13.457 24.0714L13.3987 24.104V24.0931L20.0201 20.2619H20.0183Z" fill="#0056A7"/>
</g>
<defs>
<clipPath id="clip0_7_1098">
<rect width="40" height="35" fill="white" transform="translate(0 2)"/>
</clipPath>
</defs>
</svg>
