<svg width="40" height="40" viewBox="0 0 40 40" fill="none" xmlns="http://www.w3.org/2000/svg">
<path d="M11.0662 19.987C15.5634 22.8788 15.9992 25.4669 15.0326 27.6001C14.6326 28.4908 13.7876 29.2666 13.7876 29.2666C13.7876 29.2666 17.6046 27.4254 18.8126 24.7336C20.1631 21.727 18.7003 18.5433 14.6098 15.7836C11.2211 13.4998 12.6291 11.3394 12.6291 11.3394C12.6291 11.3394 13.7463 8.49334 17.9188 8.49457C22.1852 8.49457 22.5 11.3635 22.5 11.3635L24.1665 8.06127C24.3999 7.54094 21.4507 6.07869 17.2108 6.07745C13.0364 6.07745 9.1867 7.75574 7.68618 11.0993C5.85174 15.1824 8.17998 18.134 11.0662 19.987Z" fill="#1277BD"/>
<path d="M38.5036 24.6151C39.0893 22.9726 42.4305 14.7158 36.6815 14.7145C32.7577 14.7145 28.3178 17.7927 28.3178 17.7927L32.2139 8.72667C32.2139 8.72667 33.2922 6.55336 30.7991 6.55212H26.7821C26.7821 6.55212 28.2728 7.14036 26.9556 10.0747L21.1455 23.3084C21.1455 23.3084 17.8469 30.4641 11.2128 30.4628C2.48131 30.4628 3.15719 21.59 3.15719 21.59L0 28.5574C0 28.5574 2.82265 33.9213 9.72588 33.9225C13.9003 33.9225 16.5483 32.1627 17.8346 30.7746C17.8346 30.7746 16.5884 33.6756 19.8949 33.6756H23.2898C23.2898 33.6756 22.3337 33.009 22.4047 32.164C22.4756 31.319 23.6114 28.6494 24.3798 27.252C25.1483 25.8545 28.9554 19.0747 33.3922 18.6488C37.3919 18.2661 31.3645 30.8295 31.3645 30.8295C31.3645 30.8295 30.2004 33.5491 33.2243 33.6293C36.2482 33.7095 36.8043 33.7065 36.8043 33.7065C36.8043 33.7065 35.6667 32.8559 36.2284 31.3066C36.7901 29.7573 37.9172 26.2588 38.5036 24.6151Z" fill="#1277BD"/>
</svg>
