<svg width="40" height="40" viewBox="0 0 40 40" fill="none" xmlns="http://www.w3.org/2000/svg">
<path d="M38 20C38 23.5589 36.945 27.038 34.9683 29.9974C32.9917 32.9569 30.1821 35.2641 26.8946 36.6272C23.6071 37.9904 19.9894 38.3484 16.4984 37.6561C13.0075 36.9638 9.80021 35.2522 7.28178 32.7376C4.76335 30.223 3.04685 27.0183 2.34923 23.5284C1.6516 20.0386 2.00413 16.4203 3.3623 13.1307C4.72048 9.84118 7.02331 7.02806 9.97978 5.04691C12.9363 3.06575 16.4137 2.00544 19.9726 2.00002C22.3387 1.99642 24.6822 2.45934 26.8693 3.36231C29.0563 4.26528 31.0438 5.5906 32.7182 7.26241C34.3926 8.93422 35.7209 10.9197 36.6272 13.1054C37.5335 15.291 38 17.6339 38 20Z" fill="white"/>
<path d="M19.9726 37.1638C23.3678 37.1665 26.6876 36.1622 29.512 34.2778C32.3363 32.3935 34.5384 29.7138 35.8396 26.5778C37.1407 23.4418 37.4826 19.9903 36.8219 16.66C36.1612 13.3296 34.5276 10.2701 32.1277 7.86831C29.7279 5.46655 26.6696 3.8305 23.3398 3.16712C20.01 2.50374 16.5582 2.84282 13.4212 4.14149C10.2841 5.44017 7.60269 7.64008 5.71611 10.4629C3.82953 13.2858 2.82252 16.6048 2.82252 20C2.82071 22.2534 3.26299 24.485 4.12406 26.5673C4.98512 28.6496 6.24808 30.5418 7.84079 32.1358C9.43349 33.7298 11.3247 34.9943 13.4064 35.857C15.488 36.7197 17.7192 37.1638 19.9726 37.1638Z" fill="#0083CA"/>
<mask id="mask0_7_883" style="mask-type:luminance" maskUnits="userSpaceOnUse" x="2" y="2" width="36" height="36">
<path d="M19.9726 37.1637C23.3645 37.1637 26.6803 36.1579 29.5006 34.2735C32.3209 32.389 34.5191 29.7105 35.8171 26.5768C37.1152 23.443 37.4548 19.9947 36.793 16.6679C36.1313 13.3412 34.4979 10.2853 32.0995 7.88683C29.701 5.48836 26.6451 3.85499 23.3184 3.19325C19.9916 2.53151 16.5433 2.87113 13.4095 4.16918C10.2757 5.46722 7.59731 7.66538 5.71284 10.4857C3.82837 13.306 2.82251 16.6218 2.82251 20.0137C2.82614 24.5611 4.63418 28.9212 7.84965 32.1367C11.0651 35.3521 15.4252 37.1601 19.9726 37.1637Z" fill="white"/>
</mask>
<g mask="url(#mask0_7_883)">
<path d="M20.1644 28.2802C27.7181 28.2802 34.1613 30.3914 36.9443 33.3663C37.869 31.1715 38.3356 28.811 38.3152 26.4295C38.1851 21.6893 36.2106 17.187 32.8119 13.8803C29.4131 10.5735 24.8583 8.72339 20.1164 8.72339C15.3745 8.72339 10.8197 10.5735 7.42093 13.8803C4.02219 17.187 2.04771 21.6893 1.9176 26.4295C1.92852 28.7882 2.41825 31.1202 3.35708 33.284C6.18114 30.3914 12.6381 28.2802 20.1644 28.2802Z" fill="#0083CA"/>
<path d="M20.1645 28.294C27.6908 28.294 34.1203 30.3915 36.9032 33.3389C37.8196 31.1705 38.286 28.8385 38.2741 26.4844C38.2741 21.6705 36.3618 17.0538 32.9579 13.6498C29.554 10.2459 24.9372 8.33356 20.1233 8.33356C15.3094 8.33356 10.6927 10.2459 7.28877 13.6498C3.88483 17.0538 1.97253 21.6705 1.97253 26.4844C1.97453 28.844 2.46464 31.1778 3.41201 33.3389C6.26349 30.3915 12.6519 28.294 20.1645 28.294Z" fill="#0085CB"/>
<path d="M20.1645 28.3214C27.6634 28.3214 34.0929 30.3914 36.8484 33.3252C37.7765 31.1603 38.2433 28.8259 38.2193 26.4707C38.0896 21.7557 36.1254 17.2775 32.7446 13.9885C29.3638 10.6994 24.8332 8.85919 20.1165 8.85919C15.3998 8.85919 10.8692 10.6994 7.48841 13.9885C4.10763 17.2775 2.14346 21.7557 2.0137 26.4707C1.98968 28.8259 2.45657 31.1603 3.3846 33.3252C6.26351 30.3914 12.6657 28.3214 20.1645 28.3214Z" fill="#0086CD"/>
<path d="M20.1646 28.3351C27.6497 28.3351 34.0519 30.3914 36.8074 33.2978C37.7254 31.1587 38.1921 28.8532 38.1783 26.5255C37.9964 21.8588 36.0146 17.4438 32.6486 14.2064C29.2825 10.969 24.7937 9.16064 20.1234 9.16064C15.4532 9.16064 10.9644 10.969 7.59836 14.2064C4.23231 17.4438 2.25052 21.8588 2.06863 26.5255C2.04831 28.8494 2.51532 31.1517 3.43953 33.284C6.2636 30.3914 12.6932 28.3351 20.1646 28.3351Z" fill="#0088CE"/>
<path d="M20.1643 28.3625C27.6221 28.3625 34.0105 30.3914 36.766 33.2841C37.6827 31.1638 38.1495 28.8765 38.1369 26.5666C37.9552 21.9107 35.9779 17.506 32.6195 14.2761C29.2612 11.0462 24.7826 9.24213 20.1232 9.24213C15.4637 9.24213 10.9852 11.0462 7.62688 14.2761C4.26852 17.506 2.29117 21.9107 2.10949 26.5666C2.08963 28.8772 2.55674 31.166 3.4804 33.2841C6.26334 30.3914 12.7066 28.3625 20.1643 28.3625Z" fill="#008ACF"/>
<path d="M20.1508 28.3762C27.6085 28.3762 33.9695 30.3914 36.7113 33.2566C37.6353 31.158 38.1026 28.8869 38.0822 26.594C38.0822 17.1485 30.035 9.37543 20.1097 9.37543C10.1843 9.37543 2.15082 17.1485 2.15082 26.6077C2.13194 28.8961 2.59922 31.1624 3.52172 33.2566C6.34579 30.3914 12.7205 28.3762 20.1508 28.3762Z" fill="#008CD0"/>
<path d="M20.1508 28.3899C27.5811 28.3899 33.9421 30.4051 36.6702 33.2292C37.5863 31.1522 38.0534 28.9051 38.0411 26.6351C38.0411 17.2581 30.0076 9.52625 20.1097 9.52625C10.2117 9.52625 2.20563 17.2718 2.20563 26.6351C2.1916 28.9053 2.65884 31.1527 3.57653 33.2292C6.37318 30.4051 12.7342 28.3899 20.1508 28.3899Z" fill="#008ED2"/>
<path d="M20.1508 28.4173C27.5674 28.4173 33.8599 30.4051 36.6017 33.2155C37.5193 31.1535 37.9866 28.9195 37.9726 26.6626C37.9726 17.3678 29.9665 9.69073 20.1508 9.69073C10.3351 9.69073 2.32903 17.3815 2.32903 26.6762C2.32314 28.9279 2.79019 31.1558 3.69994 33.2155C6.41433 30.4051 12.7616 28.4173 20.1508 28.4173Z" fill="#008FD3"/>
<path d="M20.1508 28.431C27.54 28.431 33.8599 30.4051 36.6017 33.1881C37.519 31.1502 37.9866 28.9386 37.9726 26.7037C37.9726 17.4912 29.9802 9.84155 20.1508 9.84155C10.3214 9.84155 2.32904 17.4912 2.32904 26.7037C2.32304 28.9377 2.79026 31.1477 3.69994 33.1881C6.44175 30.4051 12.7753 28.431 20.1508 28.431Z" fill="#0091D4"/>
<path d="M20.1508 28.4585C27.5125 28.4585 33.8598 30.4052 36.5331 33.1744C37.4492 31.1506 37.9168 28.9526 37.904 26.7311C37.904 17.6009 29.939 9.99237 20.0822 9.99237C10.2254 9.99237 2.26043 17.6009 2.26043 26.7311C2.25442 28.9519 2.72177 31.1484 3.63134 33.1744C6.48282 30.4052 12.789 28.4585 20.1508 28.4585Z" fill="#0093D5"/>
<path d="M20.1506 28.4721C27.4987 28.4721 33.7911 30.4051 36.4918 33.1469C37.4011 31.1451 37.8687 28.9709 37.8627 26.7722C37.8627 17.7105 29.9115 10.1431 20.1232 10.1431C10.3349 10.1431 2.38372 17.7242 2.38372 26.7722C2.37774 28.9709 2.84531 31.1451 3.75463 33.1469C6.51015 30.4051 12.8026 28.4721 20.1506 28.4721Z" fill="#0095D7"/>
<path d="M20.137 28.4859C27.4714 28.4859 33.7502 30.4051 36.4371 33.1195C37.3529 31.1392 37.821 28.9814 37.808 26.7996C37.808 17.8202 29.8842 10.3488 20.1096 10.3488C10.3351 10.3488 2.43865 17.8887 2.43865 26.7996C2.43322 28.9806 2.90094 31.1368 3.80955 33.1195C6.55136 30.4051 12.8301 28.4859 20.137 28.4859Z" fill="#0097D8"/>
<path d="M20.1369 28.5133C27.4575 28.5133 33.7089 30.4051 36.3958 33.1058C37.3038 31.1423 37.7717 29.004 37.7667 26.8408C37.7667 17.9436 29.8703 10.3899 20.1232 10.3899C10.376 10.3899 2.49332 17.8887 2.49332 26.8408C2.48841 29.004 2.95629 31.1423 3.86423 33.1058C6.57862 30.4051 12.8437 28.5133 20.1369 28.5133Z" fill="#0099D9"/>
<path d="M20.137 28.527C27.4303 28.527 33.6679 30.4189 36.3549 33.0784C37.2639 31.1347 37.732 29.014 37.7258 26.8682C37.7258 18.0533 29.843 10.5956 20.1233 10.5956C10.4036 10.5956 2.53461 18.0533 2.53461 26.8682C2.52834 29.014 2.99648 31.1347 3.90551 33.0784C6.61991 30.4189 12.8575 28.527 20.137 28.527Z" fill="#009BDA"/>
<path d="M20.137 28.5545C27.4028 28.5545 33.6404 30.4189 36.3 33.0647C37.2074 31.135 37.6756 29.0281 37.6709 26.8957C37.6709 18.163 29.8156 10.7464 20.1233 10.7464C10.431 10.7464 2.5757 18.163 2.5757 26.9094C2.57254 29.0372 3.04072 31.1394 3.94661 33.0647C6.64729 30.4189 12.8712 28.5545 20.137 28.5545Z" fill="#009DDC"/>
<path d="M20.1371 28.5681C27.3892 28.5681 33.5994 30.4188 36.2589 33.0373C37.166 31.1318 37.6345 29.0471 37.6298 26.9367C37.6298 18.2726 29.7882 10.8972 20.1233 10.8972C10.4585 10.8972 2.63062 18.2863 2.63062 26.9367C2.63192 29.0465 3.10008 31.1298 4.00152 33.0373C6.6885 30.4188 12.8987 28.5681 20.1371 28.5681Z" fill="#009FDD"/>
<path d="M20.137 28.5819C27.3617 28.5819 33.5582 30.4189 36.2178 33.0099C37.1267 31.1245 37.5955 29.0573 37.5887 26.9642C37.5887 18.3961 29.7745 11.048 20.137 11.048C10.4996 11.048 2.68542 18.3961 2.68542 26.9642C2.68524 29.0565 3.15367 31.1223 4.05633 33.0099C6.71589 30.4189 12.9124 28.5819 20.137 28.5819Z" fill="#00A1DE"/>
<path d="M20.1234 28.6093C27.348 28.6093 33.5171 30.4189 36.163 32.9962C37.0674 31.1287 37.5362 29.0803 37.5339 27.0053C37.5339 18.5057 29.7334 11.2125 20.1097 11.2125C10.4859 11.2125 2.71289 18.5057 2.71289 27.0053C2.71578 29.0797 3.18426 31.127 4.0838 32.9962C6.74335 30.4189 12.9261 28.6093 20.1234 28.6093Z" fill="#00A3DF"/>
<path d="M20.1233 28.623C27.3206 28.623 33.476 30.4188 36.1218 32.9687C37.0287 31.1216 37.4978 29.0904 37.4927 27.0327C37.4927 18.6154 29.7197 11.3633 20.1233 11.3633C10.527 11.3633 2.7677 18.6154 2.7677 27.0327C2.7694 29.0897 3.23816 31.1193 4.13861 32.9687C6.78445 30.4188 12.9535 28.623 20.1233 28.623Z" fill="#00A5E1"/>
<path d="M20.1232 28.6504C27.2931 28.6504 33.4484 30.4188 36.0806 32.955C36.9798 31.1247 37.4487 29.1131 37.4515 27.0738C37.4515 18.725 29.6921 11.514 20.1232 11.514C10.5543 11.514 2.80872 18.7387 2.80872 27.0738C2.81154 29.1131 3.28045 31.1247 4.17962 32.955C6.81176 30.4188 12.9671 28.6504 20.1232 28.6504Z" fill="#00A7E2"/>
<path d="M20.1232 28.6641C27.2793 28.6641 33.4073 30.4325 36.0394 32.9276C36.9383 31.1167 37.4074 29.1229 37.4103 27.1012C37.4103 18.8758 29.6784 11.6649 20.1369 11.6649C10.5954 11.6649 2.8772 18.8484 2.8772 27.1012C2.88011 29.1229 3.34924 31.1167 4.2481 32.9276C6.85282 30.5011 12.9808 28.6641 20.1232 28.6641Z" fill="#00A9E3"/>
<path d="M20.1233 28.6778C27.252 28.6778 33.3663 30.4326 35.9847 32.9002C36.8836 31.1138 37.3531 29.1422 37.3556 27.1424C37.3556 18.917 29.6511 11.8157 20.137 11.8157C10.6229 11.8157 2.91846 18.9581 2.91846 27.1424C2.921 29.1422 3.39043 31.1138 4.28936 32.9002C6.88037 30.5011 12.9946 28.6778 20.1233 28.6778Z" fill="#00ABE5"/>
<path d="M20.1232 28.7052C27.2382 28.7052 33.325 30.4326 35.9435 32.8865C36.8419 31.1146 37.3115 29.1565 37.3144 27.1698C37.3144 19.0678 29.6236 11.9665 20.1369 11.9665C10.6503 11.9665 2.95947 19.0678 2.95947 27.1698C2.96233 29.1565 3.43192 31.1146 4.33038 32.8865C6.92139 30.5011 13.0219 28.7052 20.1232 28.7052Z" fill="#00ADE6"/>
<path d="M20.1096 28.7189C27.2109 28.7189 33.2977 30.4326 35.9024 32.8317C36.795 31.0772 37.2644 29.1382 37.2733 27.1698C37.2733 19.15 29.61 12.0898 20.137 12.0898C10.664 12.0898 3.0144 19.1637 3.0144 27.1698C3.02379 29.1381 3.49326 31.077 4.38531 32.8317C6.9489 30.5011 13.0357 28.7189 20.1096 28.7189Z" fill="#00AFE7"/>
<path d="M20.1097 28.7463C27.1972 28.7463 33.2566 30.4326 35.8476 32.8591C36.7454 31.1311 37.2155 29.213 37.2185 27.2658C37.2185 19.3282 29.5689 12.2955 20.1233 12.2955C10.6778 12.2955 3.04187 19.3282 3.04187 27.2658C3.05124 29.2122 3.521 31.1289 4.41278 32.8591C6.99008 30.5011 13.118 28.7463 20.1097 28.7463Z" fill="#00B2E9"/>
<path d="M20.1096 28.7601C27.1697 28.7601 33.2154 30.4326 35.8064 32.8728C36.6983 31.1574 37.1683 29.254 37.1773 27.3206C37.1773 19.4653 29.5551 12.4737 20.137 12.4737C10.7189 12.4737 3.11035 19.4653 3.11035 27.3206C3.11943 29.254 3.58939 31.1574 4.48126 32.8728C7.01743 30.5011 13.118 28.7601 20.1096 28.7601Z" fill="#00B4EA"/>
<path d="M20.1096 28.7738C27.1423 28.7738 33.1743 30.4326 35.7653 32.7906C36.6551 31.0989 37.1252 29.2183 37.1362 27.3069C37.1362 19.5202 29.5277 12.5697 20.137 12.5697C10.7463 12.5697 3.15149 19.5202 3.15149 27.3069C3.16247 29.2183 3.63264 31.0989 4.5224 32.7906C7.05857 30.5011 13.118 28.7738 20.1096 28.7738Z" fill="#00B6EB"/>
<path d="M20.1097 28.8012C27.1288 28.8012 33.1333 30.4463 35.7106 32.7768C36.6134 31.0902 37.0844 29.2062 37.0815 27.2932C37.0815 19.5887 29.4867 12.6931 20.1371 12.6931C10.7875 12.6931 3.19275 19.5476 3.19275 27.2932C3.19665 29.2054 3.66724 31.0877 4.56365 32.7768C7.08612 30.5011 13.1181 28.8012 20.1097 28.8012Z" fill="#00B8ED"/>
<path d="M20.0958 28.8149C27.1011 28.8149 33.1057 30.4463 35.6693 32.7494C36.5588 31.0971 37.0295 29.2519 37.0402 27.3754C37.0402 19.7532 29.459 12.8849 20.1232 12.8849C10.7873 12.8849 3.23364 19.7395 3.23364 27.3754C3.24432 29.2519 3.71504 31.0971 4.60455 32.7494C7.11331 30.5011 13.1179 28.8149 20.0958 28.8149Z" fill="#01BBEE"/>
<path d="M20.0958 28.8423C27.0875 28.8423 33.0646 30.4462 35.6282 32.722C36.5175 31.0893 36.9885 29.2619 36.9991 27.4028C36.9991 19.8629 29.4454 13.0358 20.137 13.0358C10.8285 13.0358 3.30225 19.8903 3.30225 27.4028C3.31291 29.2619 3.7839 31.0893 4.67315 32.722C7.15449 30.5011 13.1179 28.8423 20.0958 28.8423Z" fill="#11BDF0"/>
<path d="M20.096 28.856C27.0602 28.856 33.0236 30.4463 35.5735 32.7083C36.461 31.0947 36.9321 29.2854 36.9444 27.444C36.9444 19.9726 29.4181 13.1866 20.1371 13.1866C10.8561 13.1866 3.34351 19.9726 3.34351 27.4303C3.35409 29.2763 3.8253 31.0905 4.71441 32.7083C7.18204 30.5011 13.1181 28.856 20.096 28.856Z" fill="#1AC0F1"/>
<path d="M20.096 28.8697C27.0328 28.8697 32.9825 30.4463 35.5324 32.6809C36.4197 31.0871 36.8912 29.2955 36.9033 27.4714C36.9033 20.0823 29.3907 13.3374 20.1371 13.3374C10.8835 13.3374 3.38464 20.0823 3.38464 27.4714C3.39498 29.2957 3.86657 31.0878 4.75555 32.6809C7.22318 30.5011 13.1181 28.8697 20.096 28.8697Z" fill="#1FC4F4"/>
<path d="M20.0959 28.9246C27.0327 28.9246 32.9687 30.4874 35.5049 32.7082C36.3921 31.1244 36.8638 29.3416 36.8758 27.5262C36.8758 20.1919 29.3769 13.4744 20.137 13.4744C10.8971 13.4744 3.41199 20.1919 3.41199 27.5262C3.4333 29.3404 3.90434 31.1209 4.78289 32.7082C7.23681 30.5011 13.118 28.9246 20.0959 28.9246Z" fill="#32C5F4"/>
<path d="M20.0959 28.9657C27.019 28.9657 32.955 30.5148 35.4912 32.7219C36.3718 31.1503 36.8432 29.3825 36.8621 27.581C36.8621 20.2878 29.3769 13.6115 20.137 13.6115C10.8971 13.6115 3.42566 20.2878 3.42566 27.581C3.44455 29.3825 3.91596 31.1503 4.79656 32.7219C7.25049 30.5011 13.1865 28.9657 20.0959 28.9657Z" fill="#3FC7F4"/>
<path d="M20.0959 29.0069C26.9504 29.0069 32.9413 30.5423 35.4637 32.7357C36.3499 31.1813 36.822 29.4252 36.8346 27.6359C36.8346 20.3839 29.3632 13.7624 20.137 13.7624C10.9108 13.7624 3.45312 20.3839 3.45312 27.6359C3.47183 29.4244 3.94348 31.1789 4.82403 32.7357C7.27795 30.5011 13.2002 29.0069 20.0959 29.0069Z" fill="#4AC8F5"/>
<path d="M20.0959 29.048C26.9504 29.048 32.9139 30.5834 35.4501 32.7631C36.3289 31.2156 36.8006 29.4703 36.821 27.6908C36.821 20.4935 29.3632 13.8995 20.1508 13.8995C10.9383 13.8995 3.49426 20.4935 3.49426 27.6771C3.51289 29.4612 3.98463 31.2113 4.86517 32.7631C7.29167 30.5834 13.214 29.048 20.0959 29.048Z" fill="#54CAF5"/>
<path d="M20.096 29.1302C26.9505 29.1302 32.9002 30.6519 35.4227 32.8179C36.309 31.2835 36.7814 29.545 36.7936 27.773C36.7936 20.6306 29.3359 14.064 20.1371 14.064C10.9383 14.064 3.52173 20.5895 3.52173 27.7593C3.54669 29.5295 4.01824 31.2648 4.89263 32.8042C7.30543 30.6108 13.214 29.1302 20.096 29.1302Z" fill="#5CCCF5"/>
<path d="M20.096 29.1302C26.9505 29.1302 32.8865 30.6519 35.409 32.8042C36.2873 31.2764 36.7593 29.5489 36.7799 27.7867C36.7799 20.6854 29.3359 14.1736 20.1508 14.1736C10.9658 14.1736 3.52173 20.6855 3.52173 27.7593C3.54233 29.5215 4.01432 31.249 4.89263 32.7768C7.31914 30.6519 13.2277 29.1302 20.096 29.1302Z" fill="#64CDF6"/>
<path d="M20.0957 29.1302C26.9503 29.1302 32.8726 30.6245 35.3813 32.7631C36.2597 31.2502 36.732 29.5359 36.7522 27.7867C36.7522 20.7402 29.3219 14.2559 20.1506 14.2559C10.9792 14.2559 3.56262 20.7402 3.56262 27.7867C3.56627 29.5293 4.01455 31.2421 4.865 32.7631C7.33263 30.6793 13.2412 29.1302 20.0957 29.1302Z" fill="#6CCFF6"/>
<path d="M20.096 29.2262C26.9505 29.2262 32.8454 30.7205 35.3679 32.8317C36.2458 31.3336 36.7183 29.6326 36.7388 27.8964C36.7388 20.8911 29.3085 14.4615 20.1508 14.4615C10.9932 14.4615 3.52173 20.9048 3.52173 27.8964C3.54031 29.6329 4.01293 31.3343 4.89263 32.8317C7.36026 30.7205 13.2414 29.2262 20.096 29.2262Z" fill="#73D1F6"/>
<path d="M20.096 29.2673C26.9505 29.2673 32.8317 30.7479 35.3404 32.859C36.2179 31.3708 36.6905 29.6788 36.7113 27.9512C36.7113 20.987 29.2948 14.5986 20.1508 14.5986C11.0069 14.5986 3.52173 20.987 3.52173 27.9512C3.54253 29.6788 4.01517 31.3708 4.89263 32.859C7.37397 30.7479 13.2552 29.2673 20.096 29.2673Z" fill="#7AD2F7"/>
<path d="M20.0959 29.3084C26.9504 29.3084 32.8179 30.789 35.3267 32.8728C36.1745 31.3905 36.6232 29.7136 36.629 28.006C36.629 21.1515 29.2261 14.7357 20.0959 14.7357C10.9657 14.7357 3.64502 21.0966 3.64502 28.006C3.65086 29.7136 4.09962 31.3905 4.9474 32.8728C7.38761 30.789 13.2688 29.3084 20.0959 29.3084Z" fill="#81D4F7"/>
<path d="M20.0958 29.3496C26.9504 29.3496 32.8041 30.8164 35.2992 32.8865C36.1759 31.428 36.6491 29.7625 36.6701 28.0609C36.6701 21.2064 29.2672 14.8728 20.1507 14.8728C11.0342 14.8728 3.69983 21.1927 3.69983 28.0472C3.72058 29.7575 4.19356 31.4318 5.07073 32.9002C7.40127 30.8164 13.2687 29.3496 20.0958 29.3496Z" fill="#88D6F8"/>
<path d="M20.096 29.4044C26.9506 29.4044 32.7769 30.8576 35.2857 32.9139C36.1331 31.4514 36.5821 29.7923 36.588 28.102C36.588 21.2475 29.1988 15.0099 20.1371 15.0099C11.0755 15.0099 3.68628 21.2886 3.68628 28.102C3.69216 29.7923 4.14124 31.4514 4.98866 32.9139C7.42887 30.8576 13.2826 29.4044 20.096 29.4044Z" fill="#8ED8F8"/>
<path d="M20.0959 29.4456C26.9504 29.4456 32.7631 30.8164 35.2581 32.9276C36.1292 31.4867 36.6023 29.8404 36.629 28.1569C36.629 21.3983 29.2536 15.1607 20.1782 15.1607C11.1028 15.1607 3.72729 21.3983 3.72729 28.1569C3.74742 29.8414 4.22098 31.4894 5.0982 32.9276C7.44245 30.885 13.2962 29.4456 20.0959 29.4456Z" fill="#94DAF8"/>
<path d="M20.0959 29.4867C26.9504 29.4867 32.7493 30.8576 35.1759 32.9551C36.0502 31.5256 36.5237 29.8872 36.5468 28.2117C36.5468 21.4943 29.1713 15.2978 20.0959 15.2978C11.0205 15.2978 3.64502 21.4943 3.64502 28.2117C3.65326 29.88 4.10258 31.5165 4.9474 32.9551C7.45615 30.9124 13.2962 29.4867 20.0959 29.4867Z" fill="#9BDCF9"/>
<path d="M20.0958 29.5278C26.9503 29.5278 32.7356 30.8987 35.1758 32.9687C36.0203 31.545 36.4699 29.9219 36.4782 28.2665C36.4782 21.5902 29.1164 15.4349 20.0273 15.4349C10.9382 15.4349 3.57642 21.6039 3.57642 28.2665C3.58471 29.9219 4.03425 31.545 4.87875 32.9687C7.46976 30.9535 13.3098 29.5278 20.0958 29.5278Z" fill="#A1DDF9"/>
<path d="M20.0958 29.5689C26.9503 29.5689 32.7081 30.9398 35.1758 32.9824C36.02 31.5736 36.4699 29.9637 36.4782 28.3213C36.4782 21.6999 29.1301 15.5719 20.0273 15.5719C10.9245 15.5719 3.57642 21.6999 3.57642 28.3213C3.58627 29.9678 4.03588 31.5817 4.87875 32.9961C7.49718 30.9809 13.3235 29.5689 20.0958 29.5689Z" fill="#A7DFF9"/>
<path d="M20.0959 29.6101C26.9504 29.6101 32.6945 30.9809 35.1759 33.0099C36.0426 31.6173 36.5163 30.0162 36.5468 28.3762C36.5468 21.7959 29.2124 15.709 20.0959 15.709C10.9794 15.709 3.72729 21.7959 3.72729 28.3762C3.75643 30.0164 4.23024 31.6179 5.0982 33.0099C7.51099 31.0221 13.3236 29.6238 20.0959 29.6101Z" fill="#ADE1FA"/>
<path d="M20.0959 29.6649C26.8681 29.6649 32.6808 31.0358 35.1758 33.0236C36.0196 31.6397 36.4698 30.0518 36.4782 28.431C36.4782 21.8918 29.1575 15.8599 20.1233 15.8599C11.089 15.8599 3.7821 21.9056 3.7821 28.4174C3.78384 30.0415 4.22945 31.6343 5.07076 33.0236C7.52468 31.0495 13.3373 29.6649 20.0959 29.6649Z" fill="#B3E3FA"/>
<path d="M20.0959 29.706C26.8545 29.706 32.6671 31.0769 35.1759 33.0373C36.0147 31.667 36.4605 30.0925 36.4646 28.4859C36.4646 22.0015 29.1576 15.9969 20.1371 15.9969C11.1165 15.9969 3.80957 22.0015 3.80957 28.4722C3.81835 30.0886 4.26871 31.6719 5.11195 33.051C7.53845 31.0906 13.3511 29.706 20.0959 29.706Z" fill="#B8E5FA"/>
<path d="M20.0959 29.7471C26.8545 29.7471 32.6397 31.118 35.1759 33.0647C36.019 31.7007 36.4697 30.1305 36.4782 28.527C36.4782 22.0974 29.1713 16.1888 20.1645 16.1888C11.1576 16.1888 3.86438 22.1523 3.86438 28.527C3.87511 30.1283 4.32051 31.6967 5.15303 33.0647C7.63437 31.118 13.351 29.7471 20.0959 29.7471Z" fill="#BEE7FB"/>
<path d="M20.096 29.7883C26.8409 29.7883 32.6261 31.1592 35.0937 33.0784C35.9261 31.7255 36.3718 30.1703 36.3824 28.5819C36.3824 22.1934 29.0891 16.2437 20.096 16.2437C11.1029 16.2437 3.82336 22.1797 3.82336 28.5819C3.82755 30.1712 4.27373 31.7281 5.11202 33.0784C7.63449 31.1592 13.3649 29.7883 20.096 29.7883Z" fill="#C4E9FB"/>
<path d="M20.0958 29.8294C26.827 29.8294 32.6122 31.2003 35.0661 33.1058C35.9029 31.7649 36.3491 30.2173 36.3548 28.6367C36.3548 22.3031 29.0753 16.4082 20.0958 16.4082C11.1164 16.4082 3.83691 22.3031 3.83691 28.6367C3.8497 30.2162 4.29542 31.762 5.12557 33.1058C7.63433 31.1866 13.3784 29.8431 20.0958 29.8294Z" fill="#CAEBFC"/>
<path d="M20.0959 29.8842C26.827 29.8842 32.5986 31.2551 35.0525 33.1195C35.8826 31.7908 36.3286 30.2582 36.3411 28.6915C36.3411 22.399 29.0616 16.5453 20.0959 16.5453C11.1302 16.5453 3.86438 22.399 3.86438 28.6915C3.87693 30.2582 4.32296 31.7908 5.15303 33.1195C7.63437 31.2277 13.3785 29.8842 20.0959 29.8842Z" fill="#CFEDFC"/>
<path d="M20.0958 29.9253C26.8133 29.9253 32.5711 31.2963 35.025 33.1333C35.8544 31.8194 36.3007 30.3001 36.3137 28.7464C36.3137 22.495 29.0479 16.6961 20.0958 16.6961C11.1438 16.6961 3.89172 22.5088 3.89172 28.7464C3.90164 30.3029 4.343 31.8262 5.1667 33.147C7.63433 31.2551 13.3921 29.9253 20.0958 29.9253Z" fill="#D5EFFC"/>
<path d="M20.0958 29.9664C26.7995 29.9664 32.5573 31.3374 35.0112 33.1607C35.837 31.856 36.2788 30.3452 36.2862 28.8012C36.2862 22.6047 29.0341 16.8332 20.0958 16.8332C11.1575 16.8332 3.9054 22.6047 3.9054 28.8012C3.91688 30.3466 4.3635 31.8574 5.19405 33.1607C7.63426 31.2825 13.4058 29.9664 20.0958 29.9664Z" fill="#DAF1FD"/>
<path d="M20.0959 30.0076C26.7996 30.0076 32.5437 31.3785 34.9839 33.1744C35.8125 31.8855 36.2593 30.3882 36.2726 28.856C36.2726 22.7006 29.0204 16.9703 20.0959 16.9703C11.1713 16.9703 3.93286 22.7007 3.93286 28.8423C3.93945 30.3779 4.38158 31.8801 5.20784 33.1744C7.63434 31.3237 13.4195 30.0076 20.0959 30.0076Z" fill="#E0F3FD"/>
<path d="M20.0958 30.0487C26.7858 30.0487 32.5162 31.3511 34.9701 33.2018C35.786 31.9129 36.2274 30.4225 36.245 28.8971C36.245 22.8103 29.0066 17.1074 20.0958 17.1074C11.1849 17.1074 3.96021 22.8103 3.96021 28.8971C3.96897 30.4238 4.4111 31.9166 5.23514 33.2018C7.63422 31.3511 13.4194 30.0624 20.0958 30.0487Z" fill="#E6F5FD"/>
<path d="M20.0959 30.1035C26.7722 30.1035 32.5026 31.3922 34.9428 33.2155C35.7663 31.9453 36.2087 30.4658 36.2177 28.952C36.2177 22.9063 28.993 17.2444 20.0959 17.2444C11.1987 17.2444 3.974 22.9063 3.974 28.952C3.98903 30.4649 4.431 31.9428 5.24897 33.2155C7.70289 31.3922 13.4333 30.1035 20.0959 30.1035Z" fill="#EBF7FE"/>
<path d="M20.0959 30.1447C26.7722 30.1447 32.434 31.4196 34.9154 33.2292C35.7425 31.9752 36.19 30.509 36.204 29.0068C36.204 23.0023 28.9794 17.3953 20.0959 17.3953C11.2124 17.3953 4.00146 23.0023 4.00146 29.0068C4.01186 30.5119 4.45438 31.9822 5.2764 33.2429C7.71661 31.4196 13.447 30.1447 20.0959 30.1447Z" fill="#F1FAFE"/>
<path d="M20.0959 30.1858C26.7586 30.1858 32.4341 31.4608 34.9018 33.2566C35.717 32.008 36.1592 30.5528 36.1767 29.0617C36.1767 23.1119 28.9657 17.5323 20.0959 17.5323C11.2262 17.5323 4.02893 23.1119 4.02893 29.0617C4.04155 30.5515 4.47912 32.0068 5.29018 33.2566C7.73039 31.4608 13.4471 30.1858 20.0959 30.1858Z" fill="#F7FCFE"/>
<path d="M20.0959 30.2269C26.7448 30.2269 32.434 31.4881 34.8743 33.2703C35.6871 32.0511 36.1299 30.6228 36.1492 29.1576C36.1492 23.249 28.9519 17.7106 20.0959 17.7106C11.2398 17.7106 4.0426 23.1942 4.0426 29.1576C4.06194 30.6228 4.50471 32.0511 5.31753 33.2703C7.74404 31.4881 13.4607 30.2269 20.0959 30.2269Z" fill="white"/>
</g>
<path d="M19.9725 24.332C14.6332 24.2846 9.32779 25.1851 4.3031 26.9916C5.65108 30.0217 7.84868 32.596 10.6298 34.4026C13.4109 36.2093 16.6561 37.1709 19.9725 37.1709C23.2889 37.1709 26.5342 36.2093 29.3153 34.4026C32.0964 32.596 34.294 30.0217 35.642 26.9916C30.6173 25.1851 25.3119 24.2846 19.9725 24.332Z" fill="#0083CA"/>
</svg>
